<svg width="32" height="32" viewBox="0 0 32 32" fill="none" xmlns="http://www.w3.org/2000/svg"><path d="M14.8 16.334c0-.2 0-.667-.333-.934-.334-.333-.667-.466-1.2-.466h-1.334c-.4 0-.6.2-.6.533V18.6c0 .334.267.534.534.534a.526.526 0 0 0 .533-.534v-.8h.533l.734 1.067c.133.133.333.267.466.267.267 0 .534-.267.534-.534 0-.2-.067-.266-.134-.333l-.466-.6c.466-.4.733-.733.733-1.333zm-1 0c0 .333-.2.466-.533.466H12.4v-.933h.867c.4 0 .533.133.533.467zm3.4-.534c-.4 0-.667.2-.867.4a.501.501 0 0 0-.466-.333.526.526 0 0 0-.534.534v2.933c0 .333.267.533.534.533a.526.526 0 0 0 .533-.533v-.667c.2.2.4.334.8.334.667 0 1.467-.534 1.467-1.6 0-1.067-.734-1.6-1.467-1.6zm-.2 1c.4 0 .6.267.6.667s-.2.667-.6.667c-.4 0-.6-.267-.6-.667 0-.466.2-.666.6-.666z" fill="#098A4E"/><path d="M2.667 11.333v4A6.09 6.09 0 0 0 8 10H4c-.733 0-1.333.6-1.333 1.333zm0 11.467v-3.466a5.25 5.25 0 0 1 4.666 4.667H3.867c-.667 0-1.2-.534-1.2-1.2zM26 13.2v3.467A5.25 5.25 0 0 1 21.333 12H24.8c.667 0 1.2.533 1.2 1.2zm0 11.6v-3.466a5.25 5.25 0 0 0-4.667 4.667H24.8c.667 0 1.2-.534 1.2-1.2z" fill="#20CE7D"/><path d="M27.8 6.8c-4.2-.133-6.667-.866-8.8-1.466-1.8-.533-3.4-1-5.6-1-2.933 0-5.2.467-6.533.8-1.267.333-2.2 1.533-2.2 2.933v.867c-.4.067-.8.2-1.134.267-1.266.266-2.2 1.466-2.2 2.866v10.4c0 .934.4 1.734 1.134 2.334.733.6 1.666.8 2.533.6 1.6-.334 3.333-.534 5.133-.534 1.867 0 3.267.4 5 .934 2.134.6 4.734 1.4 9.067 1.6h.133c.8 0 1.534-.267 2.067-.867.6-.6.933-1.333.933-2.133v-1.067h.334c.8 0 1.533-.267 2.066-.867.6-.6.934-1.333.934-2.133V9.801c0-1.6-1.267-2.934-2.867-3zm-2.467 17.534c0 .267-.133.533-.333.733-.2.2-.467.267-.733.267-4.067-.2-6.467-.867-8.6-1.467-1.8-.533-3.4-1-5.6-1-1.934 0-3.8.2-5.534.6-.333.067-.6 0-.866-.2a1.123 1.123 0 0 1-.334-.8v-10.4c0-.466.334-.866.734-.933 1.266-.333 3.333-.733 6.066-.733 1.867 0 3.267.4 5 .933 2.134.6 4.8 1.4 9.267 1.6.533 0 .933.467.933 1v10.4zm3.334-4c0 .267-.134.533-.334.733-.2.2-.466.267-.733.267h-.267v-7.533c0-1.6-1.266-2.934-2.866-3-4.2-.134-6.6-.867-8.8-1.467-1.8-.533-3.4-1-5.6-1-1.267 0-2.4.067-3.467.2v-.533c0-.467.333-.867.733-.934 1.267-.333 3.334-.733 6.067-.733 1.867 0 3.267.4 5 .933 2.133.6 4.8 1.4 9.267 1.6.533 0 .933.467.933 1v10.467h.067z" fill="#098A4E"/></svg>